<svg xmlns="http://www.w3.org/2000/svg" xmlns:xlink="http://www.w3.org/1999/xlink" width="450" zoomAndPan="magnify" viewBox="510 329 450 136" height="136" preserveAspectRatio="xMidYMid meet" version="1.0"><defs><g/><clipPath id="0842ebecf3"><path d="M 513 331 L 598 331 L 598 398 L 513 398 Z M 513 331 " clip-rule="nonzero"/></clipPath><clipPath id="8d4b39ce7c"><path d="M 509.789062 334.949219 L 595.53125 325.609375 L 602.84375 392.714844 L 517.101562 402.054688 Z M 509.789062 334.949219 " clip-rule="nonzero"/></clipPath><clipPath id="c00d9aa739"><path d="M 509.789062 334.949219 L 595.53125 325.609375 L 602.84375 392.714844 L 517.101562 402.054688 Z M 509.789062 334.949219 " clip-rule="nonzero"/></clipPath><clipPath id="f1c952e915"><path d="M 519 339 L 598 339 L 598 397 L 519 397 Z M 519 339 " clip-rule="nonzero"/></clipPath><clipPath id="ee3daed764"><path d="M 509.789062 334.949219 L 595.53125 325.609375 L 602.84375 392.714844 L 517.101562 402.054688 Z M 509.789062 334.949219 " clip-rule="nonzero"/></clipPath><clipPath id="0f29128886"><path d="M 509.789062 334.949219 L 595.53125 325.609375 L 602.84375 392.714844 L 517.101562 402.054688 Z M 509.789062 334.949219 " clip-rule="nonzero"/></clipPath><clipPath id="1d96271f0c"><path d="M 517 340 L 546 340 L 546 349 L 517 349 Z M 517 340 " clip-rule="nonzero"/></clipPath><clipPath id="ecc904742c"><path d="M 509.789062 334.949219 L 595.53125 325.609375 L 602.84375 392.714844 L 517.101562 402.054688 Z M 509.789062 334.949219 " clip-rule="nonzero"/></clipPath><clipPath id="012f875204"><path d="M 509.789062 334.949219 L 595.53125 325.609375 L 602.84375 392.714844 L 517.101562 402.054688 Z M 509.789062 334.949219 " clip-rule="nonzero"/></clipPath><clipPath id="4bf64877da"><path d="M 573 338 L 580 338 L 580 357 L 573 357 Z M 573 338 " clip-rule="nonzero"/></clipPath><clipPath id="3f3bc0c145"><path d="M 509.789062 334.949219 L 595.53125 325.609375 L 602.84375 392.714844 L 517.101562 402.054688 Z M 509.789062 334.949219 " clip-rule="nonzero"/></clipPath><clipPath id="83c0da54c6"><path d="M 509.789062 334.949219 L 595.53125 325.609375 L 602.84375 392.714844 L 517.101562 402.054688 Z M 509.789062 334.949219 " clip-rule="nonzero"/></clipPath><clipPath id="133271168d"><path d="M 542 345 L 552 345 L 552 364 L 542 364 Z M 542 345 " clip-rule="nonzero"/></clipPath><clipPath id="afd4e19609"><path d="M 509.789062 334.949219 L 595.53125 325.609375 L 602.84375 392.714844 L 517.101562 402.054688 Z M 509.789062 334.949219 " clip-rule="nonzero"/></clipPath><clipPath id="1f234d8db6"><path d="M 509.789062 334.949219 L 595.53125 325.609375 L 602.84375 392.714844 L 517.101562 402.054688 Z M 509.789062 334.949219 " clip-rule="nonzero"/></clipPath><clipPath id="cd465d744b"><path d="M 529 356 L 541 356 L 541 368 L 529 368 Z M 529 356 " clip-rule="nonzero"/></clipPath><clipPath id="81d968fd6a"><path d="M 509.789062 334.949219 L 595.53125 325.609375 L 602.84375 392.714844 L 517.101562 402.054688 Z M 509.789062 334.949219 " clip-rule="nonzero"/></clipPath><clipPath id="3f6395eafd"><path d="M 509.789062 334.949219 L 595.53125 325.609375 L 602.84375 392.714844 L 517.101562 402.054688 Z M 509.789062 334.949219 " clip-rule="nonzero"/></clipPath><clipPath id="52260a207c"><path d="M 583 353 L 591 353 L 591 368 L 583 368 Z M 583 353 " clip-rule="nonzero"/></clipPath><clipPath id="a9fb75163c"><path d="M 509.789062 334.949219 L 595.53125 325.609375 L 602.84375 392.714844 L 517.101562 402.054688 Z M 509.789062 334.949219 " clip-rule="nonzero"/></clipPath><clipPath id="1f4b528cc1"><path d="M 509.789062 334.949219 L 595.53125 325.609375 L 602.84375 392.714844 L 517.101562 402.054688 Z M 509.789062 334.949219 " clip-rule="nonzero"/></clipPath><clipPath id="7db798e7ad"><path d="M 512 329 L 599 329 L 599 400 L 512 400 Z M 512 329 " clip-rule="nonzero"/></clipPath><clipPath id="ab8d34a6a8"><path d="M 509.789062 334.949219 L 595.53125 325.609375 L 602.84375 392.714844 L 517.101562 402.054688 Z M 509.789062 334.949219 " clip-rule="nonzero"/></clipPath><clipPath id="480dee123c"><path d="M 509.789062 334.949219 L 595.53125 325.609375 L 602.84375 392.714844 L 517.101562 402.054688 Z M 509.789062 334.949219 " clip-rule="nonzero"/></clipPath></defs><g clip-path="url(#0842ebecf3)"><g clip-path="url(#8d4b39ce7c)"><g clip-path="url(#c00d9aa739)"><path fill="#ffffff" d="M 535.40625 382.90625 C 529.167969 382.875 520.03125 378.464844 514.746094 368.296875 C 511.589844 362.222656 513.589844 354.613281 517.957031 349.605469 C 520.65625 346.511719 522.535156 344.902344 528.089844 344.296875 C 532.179688 343.863281 537.351562 343.96875 541.503906 342.710938 C 543.671875 340.0625 545.863281 337.390625 548.554688 335.257812 C 551.246094 333.125 554.480469 331.519531 557.917969 331.335938 C 561.9375 331.121094 566 332.203125 569.132812 334.683594 C 572.265625 337.164062 570.835938 335.601562 573.277344 338.761719 C 582.304688 333.664062 589.863281 335.449219 593.933594 341.164062 C 597.601562 346.324219 597.628906 353.453125 596.035156 360.058594 C 594.953125 364.542969 587.664062 370.601562 583.847656 373.871094 C 584.867188 380.769531 584.824219 381.632812 585.472656 388.574219 C 576.839844 386.128906 565.035156 385.128906 555.457031 388.136719 C 544.582031 391.558594 537.15625 397.414062 537.15625 397.414062 C 537.15625 397.414062 535.421875 382.902344 535.40625 382.90625 Z M 535.40625 382.90625 " fill-opacity="1" fill-rule="nonzero"/></g></g></g><g clip-path="url(#f1c952e915)"><g clip-path="url(#ee3daed764)"><g clip-path="url(#0f29128886)"><path fill="#eeeeee" d="M 533.683594 370.414062 C 534.074219 369.921875 534.640625 369.246094 534.6875 369.203125 C 528.136719 366.484375 525.238281 359.753906 528.898438 352.496094 C 530.910156 358.210938 538.382812 364.25 541.34375 365.035156 C 542.265625 364.492188 542.246094 364.101562 543.171875 363.621094 C 540.777344 359.941406 537.707031 349.921875 544.6875 343.195312 C 545.789062 353.285156 553.292969 361.660156 553.292969 361.660156 C 553.292969 361.660156 558.011719 360.347656 563.277344 360.65625 C 574.742188 361.328125 578.453125 363.832031 581.769531 365.527344 C 586.046875 361.851562 588.230469 357.652344 587.796875 347.398438 C 594.371094 354.640625 591.925781 361 588.484375 365.757812 C 590.78125 364.324219 593.773438 358.695312 594.710938 352.042969 C 595.347656 347.539062 594.507812 342.75 591.894531 339.011719 C 595.5625 341.816406 597.570312 346.359375 597.773438 350.933594 C 597.980469 355.511719 596.464844 360.09375 593.871094 363.894531 C 591.277344 367.695312 587.640625 370.742188 583.601562 373.003906 C 583.632812 371.578125 583.480469 371.402344 583.503906 370.253906 C 581.402344 369 579.683594 368.332031 577.558594 367.980469 C 575.777344 367.683594 573.984375 367.488281 572.179688 367.40625 C 560.355469 367.65625 551.488281 371.125 548.132812 375.257812 C 543.308594 381.1875 543.492188 384.785156 545.421875 392.136719 C 542.730469 393.84375 537.761719 397.195312 537.660156 396.875 C 536.746094 394.007812 535.695312 384.734375 535.253906 382.53125 C 524.203125 380.464844 518.292969 370.300781 519.988281 360.5 C 524.320312 366.082031 530.582031 369.675781 533.683594 370.414062 Z M 533.683594 370.414062 " fill-opacity="1" fill-rule="nonzero"/></g></g></g><g clip-path="url(#1d96271f0c)"><g clip-path="url(#ecc904742c)"><g clip-path="url(#012f875204)"><path fill="#eeeeee" d="M 539.539062 345.769531 C 532.3125 349.3125 523.5 346.109375 517.765625 348.917969 C 518.445312 347.703125 522.832031 345.109375 527.148438 344.636719 C 533.828125 343.910156 539.292969 344.359375 545.507812 340.117188 C 544.476562 342.671875 541.996094 344.566406 539.539062 345.769531 Z M 539.539062 345.769531 " fill-opacity="1" fill-rule="nonzero"/></g></g></g><g clip-path="url(#4bf64877da)"><g clip-path="url(#3f3bc0c145)"><g clip-path="url(#83c0da54c6)"><path fill="#eeeeee" d="M 573.277344 338.757812 C 574.058594 338.773438 574.324219 338.347656 574.734375 338.445312 C 578.367188 340.421875 583.855469 348.675781 574.746094 356.597656 C 576.582031 351.5625 577.214844 344.191406 573.277344 338.757812 Z M 573.277344 338.757812 " fill-opacity="1" fill-rule="nonzero"/></g></g></g><g clip-path="url(#133271168d)"><g clip-path="url(#afd4e19609)"><g clip-path="url(#1f234d8db6)"><path fill="#9d3f00" d="M 543.636719 345.964844 C 543.628906 348.699219 544.246094 350.820312 545.097656 352.808594 C 545.753906 354.320312 546.507812 355.792969 547.316406 357.222656 C 548.074219 358.542969 548.894531 359.820312 549.769531 361.050781 C 550.324219 361.84375 550.871094 362.640625 551.460938 363.390625 C 551.542969 363.496094 551.625 363.605469 551.707031 363.714844 C 551.605469 363.65625 551.507812 363.597656 551.402344 363.535156 C 550.617188 363.074219 549.863281 362.539062 549.136719 361.964844 C 547.316406 360.546875 545.644531 358.832031 544.5 356.742188 C 544.148438 356.105469 543.882812 355.429688 543.648438 354.738281 C 543.265625 353.628906 543.023438 352.46875 542.925781 351.308594 C 542.789062 349.472656 543.085938 347.664062 543.636719 345.964844 Z M 543.636719 345.964844 " fill-opacity="1" fill-rule="nonzero"/></g></g></g><g clip-path="url(#cd465d744b)"><g clip-path="url(#81d968fd6a)"><g clip-path="url(#3f6395eafd)"><path fill="#9d3f00" d="M 529.367188 356.832031 C 532.820312 363.089844 535.75 364.859375 540.363281 367.289062 C 534.921875 367.269531 529.773438 364.996094 529.367188 356.832031 Z M 529.367188 356.832031 " fill-opacity="1" fill-rule="nonzero"/></g></g></g><g clip-path="url(#52260a207c)"><g clip-path="url(#a9fb75163c)"><g clip-path="url(#1f4b528cc1)"><path fill="#9d3f00" d="M 589.472656 353.148438 C 592.945312 358.140625 588.789062 365.746094 583.652344 367.550781 C 586.289062 364.410156 590.074219 358.652344 589.472656 353.148438 Z M 589.472656 353.148438 " fill-opacity="1" fill-rule="nonzero"/></g></g></g><g clip-path="url(#7db798e7ad)"><g clip-path="url(#ab8d34a6a8)"><g clip-path="url(#480dee123c)"><path fill="#9d3f00" d="M 514.015625 352.914062 C 514.320312 352.042969 514.746094 351.21875 515.195312 350.417969 C 515.828125 349.289062 517.734375 346.15625 522.023438 344.15625 C 524.066406 343.207031 526.316406 342.851562 528.535156 342.664062 C 530.226562 342.511719 531.921875 342.398438 533.617188 342.273438 C 536.113281 342.066406 537.578125 342.011719 539.792969 341.421875 C 540.5 341.21875 541.214844 340.992188 541.808594 340.5625 C 542.265625 340.183594 542.632812 339.71875 543.023438 339.273438 C 543.53125 338.683594 544.027344 338.070312 544.539062 337.480469 C 546.4375 335.292969 548.445312 333.136719 550.945312 331.617188 C 552.992188 330.394531 555.378906 329.792969 557.765625 329.824219 C 560.847656 329.863281 563.972656 330.449219 566.710938 331.890625 C 568.175781 332.667969 569.492188 333.710938 570.664062 334.871094 C 571.53125 335.703125 572.417969 336.570312 573.210938 337.488281 C 573.875 337 574.574219 336.5625 575.308594 336.183594 C 576.070312 335.777344 576.871094 335.417969 577.699219 335.152344 C 579.511719 334.589844 581.398438 334.210938 583.300781 334.144531 C 584.457031 334.121094 585.601562 334.328125 586.714844 334.640625 C 587.855469 334.96875 588.972656 335.386719 589.992188 335.988281 C 590.648438 336.378906 591.269531 336.828125 591.839844 337.324219 C 592.632812 338.042969 593.347656 338.84375 594.003906 339.691406 C 594.75 340.671875 595.4375 341.714844 595.992188 342.820312 C 596.242188 343.347656 596.492188 343.878906 596.707031 344.421875 C 597.074219 345.394531 597.375 346.390625 597.625 347.410156 C 598.050781 349.230469 598.371094 351.082031 598.394531 352.960938 C 598.40625 353.804688 598.378906 354.648438 598.28125 355.488281 C 598.1875 356.285156 598.03125 357.074219 597.855469 357.855469 C 597.484375 359.558594 596.886719 361.207031 596.113281 362.773438 C 595.464844 364.0625 594.71875 365.300781 593.828125 366.441406 C 592.753906 367.835938 591.59375 369.183594 590.296875 370.378906 C 589.523438 371.085938 588.671875 371.703125 587.816406 372.308594 C 587.070312 372.828125 585.800781 373.488281 584.96875 373.863281 C 584.867188 373.910156 585.65625 379.875 585.929688 383.414062 C 586.039062 384.855469 586.4375 389.371094 586.433594 390.128906 C 584.765625 389.566406 581.777344 388.707031 577.71875 388.207031 C 567.363281 386.921875 560.410156 388.058594 554.609375 390.179688 C 547.054688 392.9375 541.488281 396.652344 536.632812 399.796875 C 536.046875 396.136719 535.371094 389.683594 534.824219 384.226562 C 531.6875 384.179688 525.695312 381.90625 523.25 379.914062 C 522.253906 379.101562 521.171875 378.398438 520.238281 377.511719 C 519.402344 376.714844 518.636719 375.84375 517.90625 374.949219 C 517.027344 373.863281 516.25 372.699219 515.539062 371.496094 C 515.039062 370.582031 514.597656 369.628906 514.195312 368.664062 C 513.046875 365.519531 511.644531 359.792969 514.015625 352.914062 Z M 515.960938 368.8125 C 516.203125 369.359375 516.480469 369.894531 516.785156 370.40625 C 516.878906 370.558594 516.96875 370.703125 517.0625 370.855469 C 517.132812 370.960938 517.199219 371.0625 517.265625 371.167969 C 517.535156 371.570312 517.808594 371.960938 518.101562 372.34375 C 518.769531 373.234375 519.710938 374.289062 519.800781 374.363281 C 520.507812 375.101562 521.273438 375.78125 522.078125 376.40625 C 522.652344 376.855469 523.425781 377.410156 524.644531 378.089844 C 531.660156 382.027344 534.429688 381.242188 534.523438 381.269531 C 534.347656 379.492188 534.1875 377.929688 534.058594 376.769531 C 533.988281 376.117188 531.382812 376.246094 527.226562 373.675781 C 526.527344 373.242188 525.847656 372.78125 525.222656 372.25 C 523.730469 370.863281 521.535156 368.730469 520.988281 365.007812 C 523.421875 368.476562 526.066406 370.574219 528.726562 371.78125 C 529.414062 372.089844 530.121094 372.367188 530.847656 372.605469 C 531.511719 372.8125 531.714844 372.898438 532.8125 373.101562 C 533.414062 373.199219 534.015625 373.238281 534.625 373.28125 C 534.917969 373.296875 535.203125 373.316406 535.503906 373.332031 C 535.558594 373.332031 535.609375 373.335938 535.660156 373.347656 C 535.980469 373.015625 536.304688 372.691406 536.640625 372.378906 C 538.554688 370.597656 540.679688 369.03125 543.019531 367.824219 C 545.351562 366.589844 547.824219 365.648438 550.355469 364.910156 C 556.402344 363.136719 569.277344 360.445312 579.410156 366.304688 C 570.246094 364.652344 565.410156 364.863281 556.582031 366.644531 C 551.488281 367.664062 546.425781 369.273438 542.039062 372.085938 C 540.5 373.078125 537.164062 375.792969 536.371094 376.539062 C 536.441406 377.769531 538.574219 394.570312 538.582031 394.59375 C 538.636719 394.597656 554.460938 381.550781 578.675781 385.476562 C 579.855469 385.667969 581.035156 385.871094 582.1875 386.191406 C 582.898438 386.375 583.578125 386.636719 584.261719 386.890625 C 584.085938 383.152344 582.886719 372.851562 582.949219 367.484375 C 582.972656 367.488281 583.710938 369.335938 584.324219 371.050781 C 584.542969 370.953125 585.953125 370.085938 586.480469 369.707031 C 587.144531 369.230469 587.363281 369.097656 588.210938 368.414062 C 588.820312 367.917969 589.382812 367.375 589.929688 366.808594 C 591.402344 365.246094 592.78125 363.585938 593.871094 361.738281 C 594.292969 361.015625 594.902344 359.800781 595.40625 358.464844 C 595.753906 357.503906 596.03125 356.523438 596.25 355.535156 C 596.363281 354.96875 596.460938 354.398438 596.523438 353.828125 C 596.59375 353.226562 596.621094 352.621094 596.632812 352.019531 C 596.613281 351.25 596.566406 350.480469 596.464844 349.722656 C 596.351562 349.011719 596.394531 349.167969 596.140625 347.914062 C 596 347.257812 595.832031 346.605469 595.644531 345.960938 C 595.601562 345.828125 595.558594 345.707031 595.519531 345.578125 C 595.335938 345.066406 595.136719 344.566406 594.910156 344.070312 C 594.65625 343.570312 594.375 343.074219 594.070312 342.597656 C 593.21875 341.339844 592.46875 340.488281 591.871094 339.9375 C 591.613281 339.695312 591.34375 339.457031 591.058594 339.246094 C 591.007812 339.207031 590.953125 339.164062 590.90625 339.125 C 590.707031 338.996094 590.511719 338.863281 590.308594 338.738281 C 589.691406 338.371094 589.039062 338.066406 588.359375 337.808594 C 587.902344 337.625 586.472656 337.207031 585.304688 337.070312 C 584.535156 336.980469 583.75 336.996094 582.976562 337.070312 C 581.628906 337.226562 580.292969 337.519531 578.988281 337.917969 C 578.113281 338.179688 577.28125 338.542969 576.480469 338.96875 C 575.953125 339.242188 575.433594 339.542969 574.933594 339.875 C 576.214844 341.890625 580.0625 351.933594 574.707031 356.652344 C 576.28125 351.09375 575.855469 344.496094 572.90625 340.148438 C 571.613281 338.242188 570.972656 337.808594 569.578125 336.539062 C 569.082031 336.105469 568.566406 335.691406 568.015625 335.320312 C 567.503906 334.992188 566.964844 334.695312 566.417969 334.441406 C 564.425781 333.546875 563.179688 333.238281 560.765625 332.964844 C 558.785156 332.769531 557.238281 332.777344 555.761719 333.144531 C 552.90625 333.855469 550.996094 335.234375 549.195312 336.953125 C 547.855469 338.214844 546.652344 339.605469 545.464844 341.007812 C 544.691406 341.890625 544.011719 342.878906 543.042969 343.5625 C 541.683594 344.453125 539.441406 344.789062 537.835938 344.988281 C 535.238281 345.292969 532.628906 345.394531 530.035156 345.625 C 527.878906 345.820312 526.726562 345.894531 524.554688 346.609375 C 518.183594 348.699219 515.960938 354.261719 515.191406 357.039062 C 513.898438 361.699219 515.167969 367.003906 515.960938 368.8125 Z M 515.960938 368.8125 " fill-opacity="1" fill-rule="nonzero"/></g></g></g><g fill="#9d3f00" fill-opacity="1"><g transform="translate(533.082507, 463.874997)"><g><path d="M 39.078125 -6.421875 C 41.328125 -6.421875 43.328125 -6.679688 45.078125 -7.203125 C 46.828125 -7.734375 48.390625 -8.414062 49.765625 -9.25 C 51.148438 -10.09375 52.359375 -11.035156 53.390625 -12.078125 C 54.421875 -13.128906 55.328125 -14.164062 56.109375 -15.1875 C 56.585938 -14.820312 56.96875 -14.265625 57.25 -13.515625 C 57.539062 -12.773438 57.6875 -12.015625 57.6875 -11.234375 C 57.6875 -9.941406 57.335938 -8.582031 56.640625 -7.15625 C 55.953125 -5.738281 54.800781 -4.429688 53.1875 -3.234375 C 51.570312 -2.035156 49.429688 -1.046875 46.765625 -0.265625 C 44.097656 0.515625 40.800781 0.90625 36.875 0.90625 C 31.550781 0.90625 26.894531 0.0976562 22.90625 -1.515625 C 18.925781 -3.140625 15.617188 -5.429688 12.984375 -8.390625 C 10.347656 -11.359375 8.367188 -14.925781 7.046875 -19.09375 C 5.734375 -23.257812 5.078125 -27.867188 5.078125 -32.921875 C 5.078125 -37.898438 5.75 -42.453125 7.09375 -46.578125 C 8.445312 -50.710938 10.445312 -54.257812 13.09375 -57.21875 C 15.75 -60.1875 19.054688 -62.492188 23.015625 -64.140625 C 26.984375 -65.796875 31.578125 -66.625 36.796875 -66.625 C 40.328125 -66.625 43.398438 -66.34375 46.015625 -65.78125 C 48.640625 -65.226562 50.820312 -64.472656 52.5625 -63.515625 C 54.300781 -62.554688 55.601562 -61.425781 56.46875 -60.125 C 57.332031 -58.820312 57.765625 -57.421875 57.765625 -55.921875 C 57.765625 -54.785156 57.515625 -53.726562 57.015625 -52.75 C 56.523438 -51.78125 55.796875 -50.9375 54.828125 -50.21875 C 53.859375 -49.5 52.65625 -48.9375 51.21875 -48.53125 C 49.78125 -48.132812 48.128906 -47.9375 46.265625 -47.9375 C 46.265625 -49.457031 46.097656 -50.972656 45.765625 -52.484375 C 45.441406 -54.003906 44.882812 -55.375 44.09375 -56.59375 C 43.300781 -57.820312 42.257812 -58.816406 40.96875 -59.578125 C 39.675781 -60.347656 38.070312 -60.734375 36.15625 -60.734375 C 33.257812 -60.734375 30.804688 -60.117188 28.796875 -58.890625 C 26.785156 -57.660156 25.171875 -55.863281 23.953125 -53.5 C 22.742188 -51.132812 21.867188 -48.222656 21.328125 -44.765625 C 20.796875 -41.304688 20.53125 -37.359375 20.53125 -32.921875 C 20.53125 -28.492188 20.859375 -24.617188 21.515625 -21.296875 C 22.171875 -17.972656 23.234375 -15.207031 24.703125 -13 C 26.171875 -10.800781 28.082031 -9.15625 30.4375 -8.0625 C 32.789062 -6.96875 35.671875 -6.421875 39.078125 -6.421875 Z M 39.078125 -6.421875 "/></g></g></g><g fill="#9d3f00" fill-opacity="1"><g transform="translate(594.530411, 463.874997)"><g><path d="M 52.0625 -24.84375 C 52.0625 -16.1875 50.03125 -9.726562 45.96875 -5.46875 C 41.914062 -1.21875 35.953125 0.90625 28.078125 0.90625 C 24.390625 0.90625 21.078125 0.375 18.140625 -0.6875 C 15.210938 -1.757812 12.722656 -3.359375 10.671875 -5.484375 C 8.617188 -7.609375 7.046875 -10.285156 5.953125 -13.515625 C 4.859375 -16.753906 4.3125 -20.53125 4.3125 -24.84375 C 4.3125 -33.5 6.335938 -39.9375 10.390625 -44.15625 C 14.453125 -48.382812 20.4375 -50.5 28.34375 -50.5 C 32.03125 -50.5 35.332031 -49.972656 38.25 -48.921875 C 41.164062 -47.867188 43.648438 -46.28125 45.703125 -44.15625 C 47.753906 -42.03125 49.328125 -39.359375 50.421875 -36.140625 C 51.515625 -32.921875 52.0625 -29.15625 52.0625 -24.84375 Z M 18.59375 -24.84375 C 18.59375 -21.582031 18.765625 -18.707031 19.109375 -16.21875 C 19.453125 -13.726562 20.003906 -11.644531 20.765625 -9.96875 C 21.535156 -8.289062 22.535156 -7.023438 23.765625 -6.171875 C 24.992188 -5.316406 26.488281 -4.890625 28.25 -4.890625 C 30.019531 -4.890625 31.507812 -5.316406 32.71875 -6.171875 C 33.9375 -7.023438 34.925781 -8.289062 35.6875 -9.96875 C 36.457031 -11.644531 37.003906 -13.726562 37.328125 -16.21875 C 37.660156 -18.707031 37.828125 -21.582031 37.828125 -24.84375 C 37.828125 -28.132812 37.65625 -31.015625 37.3125 -33.484375 C 36.96875 -35.960938 36.410156 -38.023438 35.640625 -39.671875 C 34.878906 -41.316406 33.882812 -42.550781 32.65625 -43.375 C 31.425781 -44.195312 29.929688 -44.609375 28.171875 -44.609375 C 26.398438 -44.609375 24.898438 -44.195312 23.671875 -43.375 C 22.441406 -42.550781 21.453125 -41.316406 20.703125 -39.671875 C 19.960938 -38.023438 19.425781 -35.960938 19.09375 -33.484375 C 18.757812 -31.015625 18.59375 -28.132812 18.59375 -24.84375 Z M 18.59375 -24.84375 "/></g></g></g><g fill="#9d3f00" fill-opacity="1"><g transform="translate(650.902574, 463.874997)"><g><path d="M 52.0625 -24.84375 C 52.0625 -16.1875 50.03125 -9.726562 45.96875 -5.46875 C 41.914062 -1.21875 35.953125 0.90625 28.078125 0.90625 C 24.390625 0.90625 21.078125 0.375 18.140625 -0.6875 C 15.210938 -1.757812 12.722656 -3.359375 10.671875 -5.484375 C 8.617188 -7.609375 7.046875 -10.285156 5.953125 -13.515625 C 4.859375 -16.753906 4.3125 -20.53125 4.3125 -24.84375 C 4.3125 -33.5 6.335938 -39.9375 10.390625 -44.15625 C 14.453125 -48.382812 20.4375 -50.5 28.34375 -50.5 C 32.03125 -50.5 35.332031 -49.972656 38.25 -48.921875 C 41.164062 -47.867188 43.648438 -46.28125 45.703125 -44.15625 C 47.753906 -42.03125 49.328125 -39.359375 50.421875 -36.140625 C 51.515625 -32.921875 52.0625 -29.15625 52.0625 -24.84375 Z M 18.59375 -24.84375 C 18.59375 -21.582031 18.765625 -18.707031 19.109375 -16.21875 C 19.453125 -13.726562 20.003906 -11.644531 20.765625 -9.96875 C 21.535156 -8.289062 22.535156 -7.023438 23.765625 -6.171875 C 24.992188 -5.316406 26.488281 -4.890625 28.25 -4.890625 C 30.019531 -4.890625 31.507812 -5.316406 32.71875 -6.171875 C 33.9375 -7.023438 34.925781 -8.289062 35.6875 -9.96875 C 36.457031 -11.644531 37.003906 -13.726562 37.328125 -16.21875 C 37.660156 -18.707031 37.828125 -21.582031 37.828125 -24.84375 C 37.828125 -28.132812 37.65625 -31.015625 37.3125 -33.484375 C 36.96875 -35.960938 36.410156 -38.023438 35.640625 -39.671875 C 34.878906 -41.316406 33.882812 -42.550781 32.65625 -43.375 C 31.425781 -44.195312 29.929688 -44.609375 28.171875 -44.609375 C 26.398438 -44.609375 24.898438 -44.195312 23.671875 -43.375 C 22.441406 -42.550781 21.453125 -41.316406 20.703125 -39.671875 C 19.960938 -38.023438 19.425781 -35.960938 19.09375 -33.484375 C 18.757812 -31.015625 18.59375 -28.132812 18.59375 -24.84375 Z M 18.59375 -24.84375 "/></g></g></g><g fill="#9d3f00" fill-opacity="1"><g transform="translate(707.274737, 463.874997)"><g><path d="M 58.53125 0 L 57.234375 0 C 53.878906 0 51.0625 -0.0703125 48.78125 -0.21875 C 46.507812 -0.375 44.550781 -0.71875 42.90625 -1.25 C 41.257812 -1.789062 39.835938 -2.609375 38.640625 -3.703125 C 37.441406 -4.796875 36.242188 -6.285156 35.046875 -8.171875 L 26.859375 -21.0625 L 23.1875 -18.328125 L 23.1875 -10.875 C 23.1875 -9.550781 23.398438 -8.5 23.828125 -7.71875 C 24.265625 -6.945312 24.804688 -6.347656 25.453125 -5.921875 C 26.097656 -5.503906 26.804688 -5.226562 27.578125 -5.09375 C 28.359375 -4.957031 29.078125 -4.890625 29.734375 -4.890625 L 30.8125 -4.890625 L 30.8125 0 L 1.578125 0 L 1.578125 -4.890625 L 2.65625 -4.890625 C 3.34375 -4.890625 4.066406 -4.957031 4.828125 -5.09375 C 5.585938 -5.226562 6.289062 -5.503906 6.9375 -5.921875 C 7.582031 -6.347656 8.117188 -6.945312 8.546875 -7.71875 C 8.984375 -8.5 9.203125 -9.550781 9.203125 -10.875 L 9.203125 -59.4375 C 9.203125 -60.664062 8.984375 -61.644531 8.546875 -62.375 C 8.117188 -63.101562 7.578125 -63.671875 6.921875 -64.078125 C 6.265625 -64.484375 5.550781 -64.742188 4.78125 -64.859375 C 4.019531 -64.984375 3.3125 -65.046875 2.65625 -65.046875 L 1.578125 -65.046875 L 1.578125 -69.90625 L 23.1875 -69.90625 L 23.1875 -34.40625 C 23.1875 -33.570312 23.160156 -32.609375 23.109375 -31.515625 C 23.066406 -30.421875 23.015625 -29.378906 22.953125 -28.390625 C 22.867188 -27.222656 22.796875 -26.039062 22.734375 -24.84375 L 34.328125 -37.828125 C 35.335938 -38.960938 36 -39.863281 36.3125 -40.53125 C 36.632812 -41.207031 36.796875 -41.773438 36.796875 -42.234375 C 36.796875 -43.003906 36.382812 -43.609375 35.5625 -44.046875 C 34.738281 -44.484375 33.5625 -44.703125 32.03125 -44.703125 L 32.03125 -49.328125 L 55.203125 -49.328125 L 55.203125 -44.703125 C 53.078125 -44.703125 50.988281 -44.078125 48.9375 -42.828125 C 46.882812 -41.585938 44.648438 -39.601562 42.234375 -36.875 L 36.4375 -30.28125 L 48.65625 -12.046875 C 50.269531 -9.617188 51.898438 -7.816406 53.546875 -6.640625 C 55.191406 -5.472656 56.75 -4.890625 58.21875 -4.890625 L 58.53125 -4.890625 Z M 58.53125 0 "/></g></g></g><g fill="#9d3f00" fill-opacity="1"><g transform="translate(765.802955, 463.874997)"><g><path d="M 7.90625 -64.234375 C 7.90625 -65.398438 8.109375 -66.398438 8.515625 -67.234375 C 8.921875 -68.078125 9.472656 -68.757812 10.171875 -69.28125 C 10.878906 -69.8125 11.703125 -70.203125 12.640625 -70.453125 C 13.585938 -70.710938 14.613281 -70.84375 15.71875 -70.84375 C 16.769531 -70.84375 17.773438 -70.710938 18.734375 -70.453125 C 19.691406 -70.203125 20.53125 -69.8125 21.25 -69.28125 C 21.96875 -68.757812 22.539062 -68.078125 22.96875 -67.234375 C 23.40625 -66.398438 23.625 -65.398438 23.625 -64.234375 C 23.625 -63.097656 23.40625 -62.109375 22.96875 -61.265625 C 22.539062 -60.429688 21.96875 -59.742188 21.25 -59.203125 C 20.53125 -58.671875 19.691406 -58.269531 18.734375 -58 C 17.773438 -57.726562 16.769531 -57.59375 15.71875 -57.59375 C 14.613281 -57.59375 13.585938 -57.726562 12.640625 -58 C 11.703125 -58.269531 10.878906 -58.671875 10.171875 -59.203125 C 9.472656 -59.742188 8.921875 -60.429688 8.515625 -61.265625 C 8.109375 -62.109375 7.90625 -63.097656 7.90625 -64.234375 Z M 2.65625 -4.890625 C 3.34375 -4.890625 4.066406 -4.957031 4.828125 -5.09375 C 5.585938 -5.226562 6.289062 -5.503906 6.9375 -5.921875 C 7.582031 -6.347656 8.117188 -6.945312 8.546875 -7.71875 C 8.984375 -8.5 9.203125 -9.550781 9.203125 -10.875 L 9.203125 -38.8125 C 9.203125 -40.039062 8.984375 -41.019531 8.546875 -41.75 C 8.117188 -42.488281 7.578125 -43.054688 6.921875 -43.453125 C 6.265625 -43.859375 5.550781 -44.117188 4.78125 -44.234375 C 4.019531 -44.359375 3.3125 -44.421875 2.65625 -44.421875 L 1.578125 -44.421875 L 1.578125 -49.328125 L 23.1875 -49.328125 L 23.1875 -10.875 C 23.1875 -9.550781 23.398438 -8.5 23.828125 -7.71875 C 24.265625 -6.945312 24.804688 -6.347656 25.453125 -5.921875 C 26.097656 -5.503906 26.804688 -5.226562 27.578125 -5.09375 C 28.359375 -4.957031 29.078125 -4.890625 29.734375 -4.890625 L 30.8125 -4.890625 L 30.8125 0 L 1.578125 0 L 1.578125 -4.890625 Z M 2.65625 -4.890625 "/></g></g></g><g fill="#9d3f00" fill-opacity="1"><g transform="translate(798.188887, 463.874997)"><g><path d="M 1.75 0 L 1.75 -4.890625 L 3.78125 -4.890625 C 4.4375 -4.890625 5.144531 -4.957031 5.90625 -5.09375 C 6.664062 -5.226562 7.367188 -5.503906 8.015625 -5.921875 C 8.660156 -6.347656 9.195312 -6.945312 9.625 -7.71875 C 10.0625 -8.5 10.28125 -9.550781 10.28125 -10.875 L 10.28125 -43.03125 L 2.109375 -43.03125 L 2.109375 -49.328125 L 10.28125 -49.328125 L 10.28125 -52.734375 C 10.28125 -55.578125 10.644531 -58.113281 11.375 -60.34375 C 12.113281 -62.582031 13.253906 -64.472656 14.796875 -66.015625 C 16.335938 -67.554688 18.289062 -68.726562 20.65625 -69.53125 C 23.03125 -70.34375 25.832031 -70.75 29.0625 -70.75 C 32.03125 -70.75 34.5 -70.578125 36.46875 -70.234375 C 38.445312 -69.890625 40.019531 -69.410156 41.1875 -68.796875 C 42.363281 -68.179688 43.195312 -67.46875 43.6875 -66.65625 C 44.175781 -65.851562 44.421875 -64.972656 44.421875 -64.015625 C 44.421875 -61.953125 43.484375 -60.441406 41.609375 -59.484375 C 39.742188 -58.523438 36.910156 -58.046875 33.109375 -58.046875 C 33.109375 -58.785156 33.03125 -59.585938 32.875 -60.453125 C 32.726562 -61.328125 32.472656 -62.140625 32.109375 -62.890625 C 31.753906 -63.640625 31.285156 -64.257812 30.703125 -64.75 C 30.117188 -65.25 29.394531 -65.5 28.53125 -65.5 C 27.78125 -65.5 27.132812 -65.296875 26.59375 -64.890625 C 26.050781 -64.484375 25.609375 -63.835938 25.265625 -62.953125 C 24.921875 -62.078125 24.671875 -60.929688 24.515625 -59.515625 C 24.367188 -58.109375 24.296875 -56.390625 24.296875 -54.359375 L 24.296875 -49.328125 L 36.96875 -49.328125 L 36.96875 -43.03125 L 24.296875 -43.03125 L 24.296875 -10.875 C 24.296875 -9.550781 24.515625 -8.5 24.953125 -7.71875 C 25.390625 -6.945312 25.925781 -6.347656 26.5625 -5.921875 C 27.207031 -5.503906 27.910156 -5.226562 28.671875 -5.09375 C 29.441406 -4.957031 30.15625 -4.890625 30.8125 -4.890625 L 35.125 -4.890625 L 35.125 0 Z M 1.75 0 "/></g></g></g><g fill="#9d3f00" fill-opacity="1"><g transform="translate(835.650547, 463.874997)"><g><path d="M 40.75 0 L 38.71875 -6.515625 L 38.28125 -6.515625 C 37.34375 -4.929688 36.332031 -3.648438 35.25 -2.671875 C 34.175781 -1.703125 33.023438 -0.953125 31.796875 -0.421875 C 30.578125 0.0976562 29.285156 0.445312 27.921875 0.625 C 26.554688 0.8125 25.15625 0.90625 23.71875 0.90625 C 18.925781 0.90625 15.25 -0.578125 12.6875 -3.546875 C 10.125 -6.515625 8.84375 -11.097656 8.84375 -17.296875 L 8.84375 -37.921875 C 8.84375 -39.265625 8.722656 -40.351562 8.484375 -41.1875 C 8.242188 -42.03125 7.867188 -42.691406 7.359375 -43.171875 C 6.859375 -43.648438 6.207031 -43.976562 5.40625 -44.15625 C 4.613281 -44.332031 3.664062 -44.421875 2.5625 -44.421875 L 2.375 -44.421875 L 2.375 -49.328125 L 22.828125 -49.328125 L 22.828125 -19.859375 C 22.828125 -17.878906 22.9375 -16.09375 23.15625 -14.5 C 23.382812 -12.914062 23.765625 -11.5625 24.296875 -10.4375 C 24.835938 -9.320312 25.554688 -8.457031 26.453125 -7.84375 C 27.359375 -7.226562 28.484375 -6.921875 29.828125 -6.921875 C 31.296875 -6.921875 32.5625 -7.238281 33.625 -7.875 C 34.6875 -8.519531 35.550781 -9.445312 36.21875 -10.65625 C 36.894531 -11.875 37.390625 -13.34375 37.703125 -15.0625 C 38.023438 -16.789062 38.1875 -18.734375 38.1875 -20.890625 L 38.1875 -38.546875 C 38.1875 -39.890625 38.003906 -40.953125 37.640625 -41.734375 C 37.285156 -42.515625 36.804688 -43.101562 36.203125 -43.5 C 35.609375 -43.90625 34.90625 -44.160156 34.09375 -44.265625 C 33.289062 -44.367188 32.4375 -44.421875 31.53125 -44.421875 L 31.265625 -44.421875 L 31.265625 -49.328125 L 52.15625 -49.328125 L 52.15625 -10.6875 C 52.15625 -9.34375 52.3125 -8.285156 52.625 -7.515625 C 52.9375 -6.753906 53.363281 -6.179688 53.90625 -5.796875 C 54.445312 -5.410156 55.09375 -5.160156 55.84375 -5.046875 C 56.59375 -4.941406 57.414062 -4.890625 58.3125 -4.890625 L 59.078125 -4.890625 L 59.078125 0 Z M 40.75 0 "/></g></g></g><g fill="#9d3f00" fill-opacity="1"><g transform="translate(897.008614, 463.874997)"><g><path d="M 2.65625 -4.890625 C 3.34375 -4.890625 4.066406 -4.957031 4.828125 -5.09375 C 5.585938 -5.226562 6.289062 -5.503906 6.9375 -5.921875 C 7.582031 -6.347656 8.117188 -6.945312 8.546875 -7.71875 C 8.984375 -8.5 9.203125 -9.550781 9.203125 -10.875 L 9.203125 -59.4375 C 9.203125 -60.664062 8.984375 -61.644531 8.546875 -62.375 C 8.117188 -63.101562 7.578125 -63.671875 6.921875 -64.078125 C 6.265625 -64.484375 5.550781 -64.742188 4.78125 -64.859375 C 4.019531 -64.984375 3.3125 -65.046875 2.65625 -65.046875 L 1.578125 -65.046875 L 1.578125 -69.90625 L 23.1875 -69.90625 L 23.1875 -10.875 C 23.1875 -9.550781 23.398438 -8.5 23.828125 -7.71875 C 24.265625 -6.945312 24.804688 -6.347656 25.453125 -5.921875 C 26.097656 -5.503906 26.804688 -5.226562 27.578125 -5.09375 C 28.359375 -4.957031 29.078125 -4.890625 29.734375 -4.890625 L 30.8125 -4.890625 L 30.8125 0 L 1.578125 0 L 1.578125 -4.890625 Z M 2.65625 -4.890625 "/></g></g></g></svg>