<?xml version="1.0" encoding="utf-8"?>
<svg xmlns="http://www.w3.org/2000/svg" width="1920" zoomAndPan="magnify" viewBox="0 0 500.182 498.752" height="1080" preserveAspectRatio="xMidYMid meet" version="1.0">
  <defs>
    <g/>
    <clipPath id="fd59bc5994">
      <path d="M 676 331 L 761 331 L 761 398 L 676 398 Z M 676 331 " clip-rule="nonzero"/>
    </clipPath>
    <clipPath id="a4a107f182">
      <path d="M 673.289062 334.949219 L 759.03125 325.609375 L 766.34375 392.714844 L 680.601562 402.054688 Z M 673.289062 334.949219 " clip-rule="nonzero"/>
    </clipPath>
    <clipPath id="b2093808d4">
      <path d="M 673.289062 334.949219 L 759.03125 325.609375 L 766.34375 392.714844 L 680.601562 402.054688 Z M 673.289062 334.949219 " clip-rule="nonzero"/>
    </clipPath>
    <clipPath id="ddc8a06570">
      <path d="M 683 339 L 762 339 L 762 397 L 683 397 Z M 683 339 " clip-rule="nonzero"/>
    </clipPath>
    <clipPath id="dd03a82d03">
      <path d="M 673.289062 334.949219 L 759.03125 325.609375 L 766.34375 392.714844 L 680.601562 402.054688 Z M 673.289062 334.949219 " clip-rule="nonzero"/>
    </clipPath>
    <clipPath id="e9c5590bbc">
      <path d="M 673.289062 334.949219 L 759.03125 325.609375 L 766.34375 392.714844 L 680.601562 402.054688 Z M 673.289062 334.949219 " clip-rule="nonzero"/>
    </clipPath>
    <clipPath id="02ec588445">
      <path d="M 681 340 L 710 340 L 710 349 L 681 349 Z M 681 340 " clip-rule="nonzero"/>
    </clipPath>
    <clipPath id="3fbcd86368">
      <path d="M 673.289062 334.949219 L 759.03125 325.609375 L 766.34375 392.714844 L 680.601562 402.054688 Z M 673.289062 334.949219 " clip-rule="nonzero"/>
    </clipPath>
    <clipPath id="f4e1a3a823">
      <path d="M 673.289062 334.949219 L 759.03125 325.609375 L 766.34375 392.714844 L 680.601562 402.054688 Z M 673.289062 334.949219 " clip-rule="nonzero"/>
    </clipPath>
    <clipPath id="24c8811148">
      <path d="M 736 338 L 744 338 L 744 357 L 736 357 Z M 736 338 " clip-rule="nonzero"/>
    </clipPath>
    <clipPath id="72163a8ac2">
      <path d="M 673.289062 334.949219 L 759.03125 325.609375 L 766.34375 392.714844 L 680.601562 402.054688 Z M 673.289062 334.949219 " clip-rule="nonzero"/>
    </clipPath>
    <clipPath id="ff2684a637">
      <path d="M 673.289062 334.949219 L 759.03125 325.609375 L 766.34375 392.714844 L 680.601562 402.054688 Z M 673.289062 334.949219 " clip-rule="nonzero"/>
    </clipPath>
    <clipPath id="796a1a5600">
      <path d="M 706 345 L 716 345 L 716 364 L 706 364 Z M 706 345 " clip-rule="nonzero"/>
    </clipPath>
    <clipPath id="9d3d74133e">
      <path d="M 673.289062 334.949219 L 759.03125 325.609375 L 766.34375 392.714844 L 680.601562 402.054688 Z M 673.289062 334.949219 " clip-rule="nonzero"/>
    </clipPath>
    <clipPath id="2373ee4d59">
      <path d="M 673.289062 334.949219 L 759.03125 325.609375 L 766.34375 392.714844 L 680.601562 402.054688 Z M 673.289062 334.949219 " clip-rule="nonzero"/>
    </clipPath>
    <clipPath id="da80b0173c">
      <path d="M 692 356 L 704 356 L 704 368 L 692 368 Z M 692 356 " clip-rule="nonzero"/>
    </clipPath>
    <clipPath id="167434d97d">
      <path d="M 673.289062 334.949219 L 759.03125 325.609375 L 766.34375 392.714844 L 680.601562 402.054688 Z M 673.289062 334.949219 " clip-rule="nonzero"/>
    </clipPath>
    <clipPath id="3847dbd0c2">
      <path d="M 673.289062 334.949219 L 759.03125 325.609375 L 766.34375 392.714844 L 680.601562 402.054688 Z M 673.289062 334.949219 " clip-rule="nonzero"/>
    </clipPath>
    <clipPath id="deed0b6562">
      <path d="M 747 353 L 755 353 L 755 368 L 747 368 Z M 747 353 " clip-rule="nonzero"/>
    </clipPath>
    <clipPath id="00c4c46da4">
      <path d="M 673.289062 334.949219 L 759.03125 325.609375 L 766.34375 392.714844 L 680.601562 402.054688 Z M 673.289062 334.949219 " clip-rule="nonzero"/>
    </clipPath>
    <clipPath id="60c512d5e0">
      <path d="M 673.289062 334.949219 L 759.03125 325.609375 L 766.34375 392.714844 L 680.601562 402.054688 Z M 673.289062 334.949219 " clip-rule="nonzero"/>
    </clipPath>
    <clipPath id="441013c748">
      <path d="M 676 329 L 762 329 L 762 400 L 676 400 Z M 676 329 " clip-rule="nonzero"/>
    </clipPath>
    <clipPath id="6dace053c3">
      <path d="M 673.289062 334.949219 L 759.03125 325.609375 L 766.34375 392.714844 L 680.601562 402.054688 Z M 673.289062 334.949219 " clip-rule="nonzero"/>
    </clipPath>
    <clipPath id="d8a2f192f1">
      <path d="M 673.289062 334.949219 L 759.03125 325.609375 L 766.34375 392.714844 L 680.601562 402.054688 Z M 673.289062 334.949219 " clip-rule="nonzero"/>
    </clipPath>
  </defs>
  <g clip-path="url(#fd59bc5994)" transform="matrix(3.458747, 0, 0, 3.346272, -2246.509622, -1081.306201)" style="">
    <g clip-path="url(#a4a107f182)">
      <g clip-path="url(#b2093808d4)">
        <path fill="#ffffff" d="M 698.90625 382.90625 C 692.667969 382.875 683.53125 378.464844 678.246094 368.296875 C 675.089844 362.222656 677.089844 354.613281 681.457031 349.605469 C 684.15625 346.511719 686.035156 344.902344 691.589844 344.296875 C 695.679688 343.863281 700.851562 343.96875 705.003906 342.710938 C 707.171875 340.0625 709.363281 337.390625 712.054688 335.257812 C 714.746094 333.125 717.980469 331.519531 721.417969 331.335938 C 725.4375 331.121094 729.5 332.203125 732.632812 334.683594 C 735.765625 337.164062 734.335938 335.601562 736.777344 338.761719 C 745.804688 333.664062 753.363281 335.449219 757.433594 341.164062 C 761.101562 346.324219 761.128906 353.453125 759.535156 360.058594 C 758.453125 364.542969 751.164062 370.601562 747.347656 373.871094 C 748.367188 380.769531 748.324219 381.632812 748.972656 388.574219 C 740.339844 386.128906 728.535156 385.128906 718.957031 388.136719 C 708.082031 391.558594 700.65625 397.414062 700.65625 397.414062 C 700.65625 397.414062 698.921875 382.902344 698.90625 382.90625 Z M 698.90625 382.90625 " fill-opacity="1" fill-rule="nonzero"/>
      </g>
    </g>
  </g>
  <g clip-path="url(#ddc8a06570)" transform="matrix(3.458747, 0, 0, 3.346272, -2246.509622, -1081.306201)" style="">
    <g clip-path="url(#dd03a82d03)">
      <g clip-path="url(#e9c5590bbc)">
        <path fill="#eeeeee" d="M 697.183594 370.414062 C 697.574219 369.921875 698.140625 369.246094 698.1875 369.203125 C 691.636719 366.484375 688.738281 359.753906 692.398438 352.496094 C 694.410156 358.210938 701.882812 364.25 704.84375 365.035156 C 705.765625 364.492188 705.746094 364.101562 706.671875 363.621094 C 704.277344 359.941406 701.207031 349.921875 708.1875 343.195312 C 709.289062 353.285156 716.792969 361.660156 716.792969 361.660156 C 716.792969 361.660156 721.511719 360.347656 726.777344 360.65625 C 738.242188 361.328125 741.953125 363.832031 745.269531 365.527344 C 749.546875 361.851562 751.730469 357.652344 751.296875 347.398438 C 757.871094 354.640625 755.425781 361 751.984375 365.757812 C 754.28125 364.324219 757.273438 358.695312 758.210938 352.042969 C 758.847656 347.539062 758.007812 342.75 755.394531 339.011719 C 759.0625 341.816406 761.070312 346.359375 761.273438 350.933594 C 761.480469 355.511719 759.964844 360.09375 757.371094 363.894531 C 754.777344 367.695312 751.140625 370.742188 747.101562 373.003906 C 747.132812 371.578125 746.980469 371.402344 747.003906 370.253906 C 744.902344 369 743.183594 368.332031 741.058594 367.980469 C 739.277344 367.683594 737.484375 367.488281 735.679688 367.40625 C 723.855469 367.65625 714.988281 371.125 711.632812 375.257812 C 706.808594 381.1875 706.992188 384.785156 708.921875 392.136719 C 706.230469 393.84375 701.261719 397.195312 701.160156 396.875 C 700.246094 394.007812 699.195312 384.734375 698.753906 382.53125 C 687.703125 380.464844 681.792969 370.300781 683.488281 360.5 C 687.820312 366.082031 694.082031 369.675781 697.183594 370.414062 Z M 697.183594 370.414062 " fill-opacity="1" fill-rule="nonzero"/>
      </g>
    </g>
  </g>
  <g clip-path="url(#02ec588445)" transform="matrix(3.458747, 0, 0, 3.346272, -2246.509622, -1081.306201)" style="">
    <g clip-path="url(#3fbcd86368)">
      <g clip-path="url(#f4e1a3a823)">
        <path fill="#eeeeee" d="M 703.039062 345.769531 C 695.8125 349.3125 687 346.109375 681.265625 348.917969 C 681.945312 347.703125 686.332031 345.109375 690.648438 344.636719 C 697.328125 343.910156 702.792969 344.359375 709.007812 340.117188 C 707.976562 342.671875 705.496094 344.566406 703.039062 345.769531 Z M 703.039062 345.769531 " fill-opacity="1" fill-rule="nonzero"/>
      </g>
    </g>
  </g>
  <g clip-path="url(#24c8811148)" transform="matrix(3.458747, 0, 0, 3.346272, -2246.509622, -1081.306201)" style="">
    <g clip-path="url(#72163a8ac2)">
      <g clip-path="url(#ff2684a637)">
        <path fill="#eeeeee" d="M 736.777344 338.757812 C 737.558594 338.773438 737.824219 338.347656 738.234375 338.445312 C 741.867188 340.421875 747.355469 348.675781 738.246094 356.597656 C 740.082031 351.5625 740.714844 344.191406 736.777344 338.757812 Z M 736.777344 338.757812 " fill-opacity="1" fill-rule="nonzero"/>
      </g>
    </g>
  </g>
  <g clip-path="url(#796a1a5600)" transform="matrix(3.458747, 0, 0, 3.346272, -2246.509622, -1081.306201)" style="">
    <g clip-path="url(#9d3d74133e)">
      <g clip-path="url(#2373ee4d59)">
        <path fill="#9d3f00" d="M 707.136719 345.964844 C 707.128906 348.699219 707.746094 350.820312 708.597656 352.808594 C 709.253906 354.320312 710.007812 355.792969 710.816406 357.222656 C 711.574219 358.542969 712.394531 359.820312 713.269531 361.050781 C 713.824219 361.84375 714.371094 362.640625 714.960938 363.390625 C 715.042969 363.496094 715.125 363.605469 715.207031 363.714844 C 715.105469 363.65625 715.007812 363.597656 714.902344 363.535156 C 714.117188 363.074219 713.363281 362.539062 712.636719 361.964844 C 710.816406 360.546875 709.144531 358.832031 708 356.742188 C 707.648438 356.105469 707.382812 355.429688 707.148438 354.738281 C 706.765625 353.628906 706.523438 352.46875 706.425781 351.308594 C 706.289062 349.472656 706.585938 347.664062 707.136719 345.964844 Z M 707.136719 345.964844 " fill-opacity="1" fill-rule="nonzero"/>
      </g>
    </g>
  </g>
  <g clip-path="url(#da80b0173c)" transform="matrix(3.458747, 0, 0, 3.346272, -2246.509622, -1081.306201)" style="">
    <g clip-path="url(#167434d97d)">
      <g clip-path="url(#3847dbd0c2)">
        <path fill="#9d3f00" d="M 692.867188 356.832031 C 696.320312 363.089844 699.25 364.859375 703.863281 367.289062 C 698.421875 367.269531 693.273438 364.996094 692.867188 356.832031 Z M 692.867188 356.832031 " fill-opacity="1" fill-rule="nonzero"/>
      </g>
    </g>
  </g>
  <g clip-path="url(#deed0b6562)" transform="matrix(3.458747, 0, 0, 3.346272, -2246.509622, -1081.306201)" style="">
    <g clip-path="url(#00c4c46da4)">
      <g clip-path="url(#60c512d5e0)">
        <path fill="#9d3f00" d="M 752.972656 353.148438 C 756.445312 358.140625 752.289062 365.746094 747.152344 367.550781 C 749.789062 364.410156 753.574219 358.652344 752.972656 353.148438 Z M 752.972656 353.148438 " fill-opacity="1" fill-rule="nonzero"/>
      </g>
    </g>
  </g>
  <g clip-path="url(#441013c748)" transform="matrix(3.458747, 0, 0, 3.346272, -2246.509622, -1081.306201)" style="">
    <g clip-path="url(#6dace053c3)">
      <g clip-path="url(#d8a2f192f1)">
        <path fill="#9d3f00" d="M 677.515625 352.914062 C 677.820312 352.042969 678.246094 351.21875 678.695312 350.417969 C 679.328125 349.289062 681.234375 346.15625 685.523438 344.15625 C 687.566406 343.207031 689.816406 342.851562 692.035156 342.664062 C 693.726562 342.511719 695.421875 342.398438 697.117188 342.273438 C 699.613281 342.066406 701.078125 342.011719 703.292969 341.421875 C 704 341.21875 704.714844 340.992188 705.308594 340.5625 C 705.765625 340.183594 706.132812 339.71875 706.523438 339.273438 C 707.03125 338.683594 707.527344 338.070312 708.039062 337.480469 C 709.9375 335.292969 711.945312 333.136719 714.445312 331.617188 C 716.492188 330.394531 718.878906 329.792969 721.265625 329.824219 C 724.347656 329.863281 727.472656 330.449219 730.210938 331.890625 C 731.675781 332.667969 732.992188 333.710938 734.164062 334.871094 C 735.03125 335.703125 735.917969 336.570312 736.710938 337.488281 C 737.375 337 738.074219 336.5625 738.808594 336.183594 C 739.570312 335.777344 740.371094 335.417969 741.199219 335.152344 C 743.011719 334.589844 744.898438 334.210938 746.800781 334.144531 C 747.957031 334.121094 749.101562 334.328125 750.214844 334.640625 C 751.355469 334.96875 752.46875 335.386719 753.492188 335.988281 C 754.148438 336.378906 754.769531 336.828125 755.339844 337.324219 C 756.132812 338.042969 756.847656 338.84375 757.503906 339.691406 C 758.25 340.671875 758.9375 341.714844 759.492188 342.820312 C 759.742188 343.347656 759.992188 343.878906 760.207031 344.421875 C 760.574219 345.394531 760.875 346.390625 761.125 347.410156 C 761.550781 349.230469 761.871094 351.082031 761.894531 352.960938 C 761.90625 353.804688 761.878906 354.648438 761.78125 355.488281 C 761.6875 356.285156 761.53125 357.074219 761.355469 357.855469 C 760.984375 359.558594 760.386719 361.207031 759.613281 362.773438 C 758.964844 364.0625 758.21875 365.300781 757.328125 366.441406 C 756.253906 367.835938 755.09375 369.183594 753.796875 370.378906 C 753.023438 371.085938 752.171875 371.703125 751.316406 372.308594 C 750.570312 372.828125 749.300781 373.488281 748.46875 373.863281 C 748.367188 373.910156 749.15625 379.875 749.429688 383.414062 C 749.539062 384.855469 749.9375 389.371094 749.933594 390.128906 C 748.265625 389.566406 745.277344 388.707031 741.21875 388.207031 C 730.863281 386.921875 723.910156 388.058594 718.109375 390.179688 C 710.554688 392.9375 704.988281 396.652344 700.132812 399.796875 C 699.546875 396.136719 698.871094 389.683594 698.324219 384.226562 C 695.1875 384.179688 689.195312 381.90625 686.75 379.914062 C 685.753906 379.101562 684.671875 378.398438 683.738281 377.511719 C 682.902344 376.714844 682.136719 375.84375 681.40625 374.949219 C 680.527344 373.863281 679.75 372.699219 679.039062 371.496094 C 678.539062 370.582031 678.097656 369.628906 677.695312 368.664062 C 676.546875 365.519531 675.144531 359.792969 677.515625 352.914062 Z M 679.460938 368.8125 C 679.703125 369.359375 679.980469 369.894531 680.285156 370.40625 C 680.378906 370.558594 680.46875 370.703125 680.5625 370.855469 C 680.632812 370.960938 680.699219 371.0625 680.765625 371.167969 C 681.035156 371.570312 681.308594 371.960938 681.601562 372.34375 C 682.269531 373.234375 683.210938 374.289062 683.300781 374.363281 C 684.007812 375.101562 684.773438 375.78125 685.578125 376.40625 C 686.152344 376.855469 686.925781 377.410156 688.144531 378.089844 C 695.160156 382.027344 697.929688 381.242188 698.023438 381.269531 C 697.847656 379.492188 697.6875 377.929688 697.558594 376.769531 C 697.488281 376.117188 694.882812 376.246094 690.726562 373.675781 C 690.027344 373.242188 689.347656 372.78125 688.722656 372.25 C 687.230469 370.863281 685.035156 368.730469 684.488281 365.007812 C 686.921875 368.476562 689.566406 370.574219 692.226562 371.78125 C 692.914062 372.089844 693.621094 372.367188 694.347656 372.605469 C 695.011719 372.8125 695.214844 372.898438 696.3125 373.101562 C 696.914062 373.199219 697.515625 373.238281 698.125 373.28125 C 698.417969 373.296875 698.703125 373.316406 699.003906 373.332031 C 699.058594 373.332031 699.109375 373.335938 699.160156 373.347656 C 699.480469 373.015625 699.804688 372.691406 700.140625 372.378906 C 702.054688 370.597656 704.179688 369.03125 706.519531 367.824219 C 708.851562 366.589844 711.324219 365.648438 713.855469 364.910156 C 719.902344 363.136719 732.777344 360.445312 742.910156 366.304688 C 733.746094 364.652344 728.910156 364.863281 720.082031 366.644531 C 714.988281 367.664062 709.925781 369.273438 705.539062 372.085938 C 704 373.078125 700.664062 375.792969 699.871094 376.539062 C 699.941406 377.769531 702.074219 394.570312 702.082031 394.59375 C 702.136719 394.597656 717.960938 381.550781 742.175781 385.476562 C 743.355469 385.667969 744.535156 385.871094 745.6875 386.191406 C 746.398438 386.375 747.078125 386.636719 747.761719 386.890625 C 747.585938 383.152344 746.386719 372.851562 746.449219 367.484375 C 746.472656 367.488281 747.210938 369.335938 747.824219 371.050781 C 748.042969 370.953125 749.453125 370.085938 749.980469 369.707031 C 750.644531 369.230469 750.863281 369.097656 751.710938 368.414062 C 752.320312 367.917969 752.882812 367.375 753.429688 366.808594 C 754.902344 365.246094 756.28125 363.585938 757.371094 361.738281 C 757.792969 361.015625 758.402344 359.800781 758.90625 358.464844 C 759.253906 357.503906 759.53125 356.523438 759.75 355.535156 C 759.863281 354.96875 759.960938 354.398438 760.023438 353.828125 C 760.09375 353.226562 760.121094 352.621094 760.132812 352.019531 C 760.113281 351.25 760.066406 350.480469 759.964844 349.722656 C 759.851562 349.011719 759.894531 349.167969 759.640625 347.914062 C 759.5 347.257812 759.332031 346.605469 759.144531 345.960938 C 759.101562 345.828125 759.058594 345.707031 759.019531 345.578125 C 758.835938 345.066406 758.636719 344.566406 758.410156 344.070312 C 758.15625 343.570312 757.875 343.074219 757.570312 342.597656 C 756.71875 341.339844 755.96875 340.488281 755.371094 339.9375 C 755.113281 339.695312 754.84375 339.457031 754.558594 339.246094 C 754.507812 339.207031 754.453125 339.164062 754.40625 339.125 C 754.207031 338.996094 754.011719 338.863281 753.808594 338.738281 C 753.191406 338.371094 752.539062 338.066406 751.859375 337.808594 C 751.402344 337.625 749.972656 337.207031 748.804688 337.070312 C 748.035156 336.980469 747.25 336.996094 746.476562 337.070312 C 745.128906 337.226562 743.792969 337.519531 742.488281 337.917969 C 741.613281 338.179688 740.78125 338.542969 739.980469 338.96875 C 739.453125 339.242188 738.933594 339.542969 738.433594 339.875 C 739.714844 341.890625 743.5625 351.933594 738.207031 356.652344 C 739.78125 351.09375 739.355469 344.496094 736.40625 340.148438 C 735.113281 338.242188 734.472656 337.808594 733.078125 336.539062 C 732.582031 336.105469 732.066406 335.691406 731.515625 335.320312 C 731.003906 334.992188 730.464844 334.695312 729.917969 334.441406 C 727.925781 333.546875 726.679688 333.238281 724.265625 332.964844 C 722.285156 332.769531 720.738281 332.777344 719.261719 333.144531 C 716.40625 333.855469 714.496094 335.234375 712.695312 336.953125 C 711.355469 338.214844 710.152344 339.605469 708.964844 341.007812 C 708.191406 341.890625 707.511719 342.878906 706.542969 343.5625 C 705.183594 344.453125 702.941406 344.789062 701.335938 344.988281 C 698.738281 345.292969 696.128906 345.394531 693.535156 345.625 C 691.378906 345.820312 690.226562 345.894531 688.054688 346.609375 C 681.683594 348.699219 679.460938 354.261719 678.691406 357.039062 C 677.398438 361.699219 678.667969 367.003906 679.460938 368.8125 Z M 679.460938 368.8125 " fill-opacity="1" fill-rule="nonzero"/>
      </g>
    </g>
  </g>
  <g fill="#9d3f00" fill-opacity="1" transform="matrix(3.458747, 0, 0, 3.346272, -2246.509622, -1081.306201)" style="">
    <g transform="translate(693.773419, 463.874997)">
      <g>
        <path d="M 39.078125 -6.421875 C 41.328125 -6.421875 43.328125 -6.679688 45.078125 -7.203125 C 46.828125 -7.734375 48.390625 -8.414062 49.765625 -9.25 C 51.148438 -10.09375 52.359375 -11.035156 53.390625 -12.078125 C 54.421875 -13.128906 55.328125 -14.164062 56.109375 -15.1875 C 56.585938 -14.820312 56.96875 -14.265625 57.25 -13.515625 C 57.539062 -12.773438 57.6875 -12.015625 57.6875 -11.234375 C 57.6875 -9.941406 57.335938 -8.582031 56.640625 -7.15625 C 55.953125 -5.738281 54.800781 -4.429688 53.1875 -3.234375 C 51.570312 -2.035156 49.429688 -1.046875 46.765625 -0.265625 C 44.097656 0.515625 40.800781 0.90625 36.875 0.90625 C 31.550781 0.90625 26.894531 0.0976562 22.90625 -1.515625 C 18.925781 -3.140625 15.617188 -5.429688 12.984375 -8.390625 C 10.347656 -11.359375 8.367188 -14.925781 7.046875 -19.09375 C 5.734375 -23.257812 5.078125 -27.867188 5.078125 -32.921875 C 5.078125 -37.898438 5.75 -42.453125 7.09375 -46.578125 C 8.445312 -50.710938 10.445312 -54.257812 13.09375 -57.21875 C 15.75 -60.1875 19.054688 -62.492188 23.015625 -64.140625 C 26.984375 -65.796875 31.578125 -66.625 36.796875 -66.625 C 40.328125 -66.625 43.398438 -66.34375 46.015625 -65.78125 C 48.640625 -65.226562 50.820312 -64.472656 52.5625 -63.515625 C 54.300781 -62.554688 55.601562 -61.425781 56.46875 -60.125 C 57.332031 -58.820312 57.765625 -57.421875 57.765625 -55.921875 C 57.765625 -54.785156 57.515625 -53.726562 57.015625 -52.75 C 56.523438 -51.78125 55.796875 -50.9375 54.828125 -50.21875 C 53.859375 -49.5 52.65625 -48.9375 51.21875 -48.53125 C 49.78125 -48.132812 48.128906 -47.9375 46.265625 -47.9375 C 46.265625 -49.457031 46.097656 -50.972656 45.765625 -52.484375 C 45.441406 -54.003906 44.882812 -55.375 44.09375 -56.59375 C 43.300781 -57.820312 42.257812 -58.816406 40.96875 -59.578125 C 39.675781 -60.347656 38.070312 -60.734375 36.15625 -60.734375 C 33.257812 -60.734375 30.804688 -60.117188 28.796875 -58.890625 C 26.785156 -57.660156 25.171875 -55.863281 23.953125 -53.5 C 22.742188 -51.132812 21.867188 -48.222656 21.328125 -44.765625 C 20.796875 -41.304688 20.53125 -37.359375 20.53125 -32.921875 C 20.53125 -28.492188 20.859375 -24.617188 21.515625 -21.296875 C 22.171875 -17.972656 23.234375 -15.207031 24.703125 -13 C 26.171875 -10.800781 28.082031 -9.15625 30.4375 -8.0625 C 32.789062 -6.96875 35.671875 -6.421875 39.078125 -6.421875 Z M 39.078125 -6.421875 "/>
      </g>
    </g>
  </g>
</svg>